<?xml version="1.0" encoding="utf-8"?>
<svg version="1.1" xmlns:cc="http://creativecommons.org/ns#" xmlns:dc="http://purl.org/dc/elements/1.1/" xmlns:rdf="http://www.w3.org/1999/02/22-rdf-syntax-ns#" xmlns="http://www.w3.org/2000/svg" xmlns:xlink="http://www.w3.org/1999/xlink" x="0px" y="0px" viewBox="0 0 1024 768" xml:space="preserve">
<rect fill="#000000" width="1024" height="768" />
 <path d="m454.06715 407.21454a21.45281 21.45281 0 0 1 -0.42555 2.99038 26.0817 26.0817 0 0 1 -1.57 5.70185 26.84685 26.84685 0 0 1 -6.69673 9.40532 33.72216 33.72216 0 0 1 -8.40756 5.98651 46.65137 46.65137 0 0 1 -17.5311 4.70122 43.87241 43.87241 0 0 1 -4.41656 0.14377 26.12361 26.12361 0 0 1 -4.7041 -0.28466 37.41877 37.41877 0 0 1 -9.40532 -2.13928 36.97566 36.97566 0 0 1 -16.24581 -11.257 34.87288 34.87288 0 0 1 -5.27342 -9.26442 30.91166 30.91166 0 0 1 -1.85173 -10.8315h22.08855a9.5992 9.5992 0 0 0 2.42393 5.70185 14.2683 14.2683 0 0 0 6.55583 4.27566 13.46994 13.46994 0 0 0 4.27567 0.99775 10.88 10.88 0 0 0 2.1364 0.1409 16.57033 16.57033 0 0 0 2.70859 -0.1409 23.35481 23.35481 0 0 0 9.26155 -2.28016 13.19877 13.19877 0 0 0 3.137 -1.9955 7.15737 7.15737 0 0 0 1.42331 -1.85174 2.02732 2.02732 0 0 0 0.28466 -0.85686 3.50457 3.50457 0 0 0 0.14377 -1.28241 15.26314 15.26314 0 0 0 -0.28466 -2.99325 10.48872 10.48872 0 0 0 -1.14152 -2.1364 12.97247 12.97247 0 0 0 -3.27792 -2.56483c-2.70572-1.85461-6.69672-3.27791-11.11328-4.41943-4.27567-1.28241-8.97977-2.28017-14.10942-4.1319a45.276 45.276 0 0 1 -7.83824 -3.42025 28.22526 28.22526 0 0 1 -8.26668 -6.4135 23.54022 23.54022 0 0 1 -5.27054 -10.26074 25.03867 25.03867 0 0 1 -0.85686 -5.41431 35.44469 35.44469 0 0 1 0.28466 -5.41575 24.68651 24.68651 0 0 1 4.13478 -10.97383 27.63349 27.63349 0 0 1 8.1229 -7.69591 41.19883 41.19883 0 0 1 17.95378 -5.699 42.75437 42.75437 0 0 1 4.27567 -0.2861h2.28016a12.2588 12.2588 0 0 1 2.28017 0.14233 36.82115 36.82115 0 0 1 9.54908 1.9955 36.14346 36.14346 0 0 1 16.38958 11.40082 32.04779 32.04779 0 0 1 6.98139 19.95216h-22.22938a9.81762 9.81762 0 0 0 -2.28016 -5.98651 16.496 16.496 0 0 0 -10.40307 -5.272c-0.42843 0-0.71309-0.14233-1.14152-0.14233h-3.84724c-3.56258 0.28466-6.84049 0.99775-8.69223 2.13639a10.42012 10.42012 0 0 0 -2.13927 1.56851 4.40106 4.40106 0 0 0 -0.99775 1.99551 7.74577 7.74577 0 0 0 -0.14089 3.13414 4.95356 4.95356 0 0 0 0.854 1.99551 11.77747 11.77747 0 0 0 2.70859 2.28016 25.74328 25.74328 0 0 0 4.845 2.13784c3.70347 1.42474 8.12291 2.56482 12.68324 3.84723a103.03543 103.03543 0 0 1 15.24806 4.84643 38.1854 38.1854 0 0 1 8.26667 5.272 26.22182 26.22182 0 0 1 6.84049 9.26443 26.98785 26.98785 0 0 1 2.42106 10.68773z" fill="#fff"/> <path d="m463.61911 334.67484h80.65973v19.23907h-80.65973zm29.21371 40.3313h22.08855v59.42661h-22.08855z" fill="#fff"/> <path d="m645.322 434.43275h-25.08177l-26.36423-33.20475h-14.67873v33.20472h-22.08855v-52.44372h48.02434c6.98427 0 12.68324-7.12516 12.68324-13.96565 0-6.98282-5.699-14.10941-12.68324-14.10941h-25.93579v12.25624h-22.08855v-31.49534h48.02434c19.23907 0 34.77467 14.10941 34.77467 33.34848 0 14.82107-9.4082 26.64888-22.517 31.20921z" fill="#fff"/> <path d="m687.22185 415.19368h15.81738l10.69061 19.23907h-62.13663l55.437-99.75791 55.437 99.75791h-26.64882l-29.64213-53.2992z" fill="#fff"/> <path d="m262.89278 487.35533l13.088-32.04376h2.60867l12.99408 32.04376h-3.72635l-11.27061-28.2728h1.35013l-11.4115 28.2728zm6.00864-8.33791v-2.97966h16.76738v2.97966z" fill="#d50000"/> <path d="m317.4801 487.35533v-32.04376h3.4469v32.04376zm2.14142 0v-3.16751h9.40861a13.15793 13.15793 0 0 0 6.6614 -1.653 11.65 11.65 0 0 0 4.49416 -4.56459 13.60033 13.60033 0 0 0 1.60606 -6.68254 13.35133 13.35133 0 0 0 -1.62955 -6.63792 11.6654 11.6654 0 0 0 -4.51763 -4.54111 13.2178 13.2178 0 0 0 -6.61444 -1.62954h-9.31469v-3.16752h9.40861a17.11454 17.11454 0 0 1 6.45008 1.18811 15.61788 15.61788 0 0 1 5.17039 3.353 15.214 15.214 0 0 1 3.42345 5.07647 17.34577 17.34577 0 0 1 0 12.73814 15.33128 15.33128 0 0 1 -3.4 5.09995 15.653 15.653 0 0 1 -5.14691 3.37649 16.73579 16.73579 0 0 1 -6.40547 1.21159z" fill="#d50000"/> <path d="m382.82616 487.35533l-12.76162-32.04376h3.72635l11.03811 28.27043h-1.35012l11.08512-28.27043h3.67939l-12.85554 32.04376z" fill="#d50000"/> <path d="m424.511 487.35533v-32.04376h3.44693v32.04376zm2.2823-28.92321v-3.12055h18.5824v3.12055zm0 14.01783v-3.02663h17.37318v3.02668zm0 14.90538v-3.12055h18.86184v3.12055z" fill="#d50000"/> <path d="m472.43925 487.35533v-32.04376h3.44693v32.04376zm2.23534-14.29959v-2.93274h9.26773a6.81218 6.81218 0 0 0 4.86749 -1.60841 5.58518 5.58518 0 0 0 1.7 -4.26169 5.72938 5.72938 0 0 0 -1.67651 -4.2617 6.6189 6.6189 0 0 0 -4.844 -1.653h-9.31469v-3.02663h9.31469a11.65683 11.65683 0 0 1 5.35589 1.14115 8.19372 8.19372 0 0 1 3.42345 3.144 8.78048 8.78048 0 0 1 1.18811 4.5646 8.92683 8.92683 0 0 1 -1.18811 4.67965 8.09279 8.09279 0 0 1 -3.42345 3.09707 11.84182 11.84182 0 0 1 -5.35589 1.11767zm17.14072 14.29959l-12.01731-14.81146 3.353-1.07071 13.088 15.88217z" fill="#d50000"/> <path d="m517.43012 458.43212v-3.12055h26.03511v3.12055zm11.31757 28.92321v-31.15854h3.44693v31.15854z" fill="#d50000"/> <path d="m569.69053 487.35533v-32.04376h3.44693v32.04376z" fill="#d50000"/> <path d="m610.02288 487.82024a13.11663 13.11663 0 0 1 -11.17669 -5.40285l2.37387-2.32691a10.75845 10.75845 0 0 0 3.79679 3.4 11.0968 11.0968 0 0 0 5.14691 1.11767 8.136 8.136 0 0 0 4.95907 -1.39709 4.54451 4.54451 0 0 0 1.88783 -3.86723 5.38346 5.38346 0 0 0 -0.86174 -3.144 6.48231 6.48231 0 0 0 -2.30577 -2.00288 23.42935 23.42935 0 0 0 -3.144 -1.3736q-1.70115-0.6058-3.42344-1.27969a14.86559 14.86559 0 0 1 -3.144 -1.6765 7.6747 7.6747 0 0 1 -2.30578 -2.60868 8.39622 8.39622 0 0 1 -0.88522 -4.0762 7.80454 7.80454 0 0 1 1.25856 -4.47068 8.10883 8.10883 0 0 1 3.4704 -2.86461 12.0243 12.0243 0 0 1 5.006 -1.00262 12.38323 12.38323 0 0 1 5.56722 1.21159 11.85375 11.85375 0 0 1 4.07385 3.26144l-2.37387 2.37387a10.45626 10.45626 0 0 0 -3.26143 -2.72373 8.85483 8.85483 0 0 0 -4.09969 -0.90869 7.07847 7.07847 0 0 0 -4.47067 1.30551 4.34132 4.34132 0 0 0 -1.67651 3.63242 4.5974 4.5974 0 0 0 0.86174 2.8881 6.77234 6.77234 0 0 0 2.30577 1.862 23.07849 23.07849 0 0 0 3.144 1.32665q1.69763 0.58465 3.42344 1.282a13.84283 13.84283 0 0 1 3.144 1.77043 8.24485 8.24485 0 0 1 2.30578 2.72373 8.89617 8.89617 0 0 1 0.88522 4.21474 7.86857 7.86857 0 0 1 -2.82 6.45007 11.738 11.738 0 0 1 -7.66164 2.30574z" fill="#d50000"/> <path d="m647.42487 487.35533v-32.04376h3.44693v32.04376z" fill="#d50000"/> <path d="m679.51558 487.35533v-32.04376h2.4678l0.97913 4.05273v27.991zm22.17023 0l-20.21431-27.47916 0.51188-4.5646 20.21431 27.47916zl-0.97913-3.86488v-28.17888h3.44693v32.04376z" fill="#d50000"/> <path d="m747.28482 487.82024a15.86394 15.86394 0 0 1 -11.48193 -4.79705 16.38657 16.38657 0 0 1 -3.4 -5.23849 17.65065 17.65065 0 0 1 0 -12.97294 16.33618 16.33618 0 0 1 3.44693 -5.23849 15.835 15.835 0 0 1 5.17039 -3.51737 17.19111 17.19111 0 0 1 13.55291 0.27942 14.52251 14.52251 0 0 1 5.37937 4.33214l-2.42083 2.42084a10.74157 10.74157 0 0 0 -4.2617 -3.70287 13.10416 13.10416 0 0 0 -5.79967 -1.27968 12.78531 12.78531 0 0 0 -6.61444 1.7 11.8535 11.8535 0 0 0 -4.49416 4.67965 15.29766 15.29766 0 0 0 0 13.64683 11.99881 11.99881 0 0 0 4.42372 4.682 12.14513 12.14513 0 0 0 6.40546 1.7 12.59992 12.59992 0 0 0 6.19414 -1.44405 9.96238 9.96238 0 0 0 4.05272 -4.19126 14.05289 14.05289 0 0 0 1.444 -6.61444l1.95592 1.44405h-13.97313v-3.12053h15.60275v0.51187a19.78437 19.78437 0 0 1 -1.93244 9.15268 13.21462 13.21462 0 0 1 -5.35588 5.65878 15.93912 15.93912 0 0 1 -7.89413 1.90891z" fill="#d50000"/> <path d="m297.67171 415.19368h15.81739l10.6906 19.23907h-62.13663l55.437-99.75791 55.437 99.75791h-26.64882l-29.64213-53.2992z" fill="#fff"/>
</svg>